<svg class="diagram-root" style="background: #f5f6f6" xmlns="http://www.w3.org/2000/svg" xmlns:xlink="http://www.w3.org/1999/xlink"><style>.diagram-root { font-family: "Helvetica Neue", sans-serif; font-size: 12px; } .t { overflow: visible; } .t-bg { y: 40; fill: #fff;   } .th { fill: #005aa0;   } .tht { fill: #fff; font-size: 14px;  } .tf { fill: #323c46; overflow: visible; } .tf.pk { fill: #005aa0; font-weight: bold; } .tf.fk { font-weight: bold; } .ty { fill: #adb1b5; font-weight: normal; text-anchor: end; } .r { fill: transparent; stroke: #c3c3c3; stroke-width: 1; } .l { stroke: 1; } .i { fill: #c2c7ce; stroke: #c2c7ce; } .i.ix { fill: #afb3b6; stroke: #000; } .fa { fill: transparent; overflow: visible; } .fa .bg.hover { fill: #f7f7f7; } .c { cy: 12; r: 4; stroke: #d2d2dc; fill: #d2d2dc; } .hr { fill: transparent; stroke: #323c46; stroke-opacity: 0.035; stroke-width: 13; } .dc { stroke: #fa5a3c; fill: #fa5a3c; } .x { stroke: white; stroke-width: 1; } .hl .th { fill: #1b9bff; } .hl .tht {  } .fhl .bg { fill: #e7f4ff; } .fhls .bg {  } .r.hl { stroke: #1b9bff; } .dim { opacity: 0.25; }</style><g class="drawing-wrapper" transform="translate(-24.142857142857082, 129.42857142857144) scale(1,1)"><g class="rs"><path d="M 325.38 50.56999999999999 m -1, 0 a 1,1 0 1,0 2,0 a 1,1 0 1,0 -2,0 M 325.38 50.56999999999999 m -0.5, 0 a 0.5,0.5 0 1,0 1,0 a 0.5,0.5 0 1,0 -1,0  M325.38 50.56999999999999 L325.38 50.56999999999999 337.38 50.56999999999999 M 325.38 56.56999999999999 m -1, 0 a 1,1 0 1,0 2,0 a 1,1 0 1,0 -2,0 M 325.38 56.56999999999999 m -0.5, 0 a 0.5,0.5 0 1,0 1,0 a 0.5,0.5 0 1,0 -1,0  M325.38 56.56999999999999 L325.38 56.56999999999999 332.38 50.56999999999999 325.38 44.56999999999999 M 325.38 44.56999999999999 m -1, 0 a 1,1 0 1,0 2,0 a 1,1 0 1,0 -2,0 M 325.38 44.56999999999999 m -0.5, 0 a 0.5,0.5 0 1,0 1,0 a 0.5,0.5 0 1,0 -1,0  M337.38 50.56999999999999 Q 417.86 50.56999999999999, 498.34 121.85 T 659.29 193.14 M 671.29 193.14 m -1, 0 a 1,1 0 1,0 2,0 a 1,1 0 1,0 -2,0 M 671.29 193.14 m -0.5, 0 a 0.5,0.5 0 1,0 1,0 a 0.5,0.5 0 1,0 -1,0  M671.29 193.14 L671.29 193.14 659.29 193.14 M665.29 199.14 L665.29 199.14 665.29 187.14" id="h1111724689" class="r"></path><path d="M 325.38 75.57 m -1, 0 a 1,1 0 1,0 2,0 a 1,1 0 1,0 -2,0 M 325.38 75.57 m -0.5, 0 a 0.5,0.5 0 1,0 1,0 a 0.5,0.5 0 1,0 -1,0  M325.38 75.57 L325.38 75.57 337.38 75.57 M 325.38 81.57 m -1, 0 a 1,1 0 1,0 2,0 a 1,1 0 1,0 -2,0 M 325.38 81.57 m -0.5, 0 a 0.5,0.5 0 1,0 1,0 a 0.5,0.5 0 1,0 -1,0  M325.38 81.57 L325.38 81.57 332.38 75.57 325.38 69.57 M 325.38 69.57 m -1, 0 a 1,1 0 1,0 2,0 a 1,1 0 1,0 -2,0 M 325.38 69.57 m -0.5, 0 a 0.5,0.5 0 1,0 1,0 a 0.5,0.5 0 1,0 -1,0  M337.38 75.57 Q 417.97 75.57, 498.55 43.79 T 659.71 12 M 671.71 12 m -1, 0 a 1,1 0 1,0 2,0 a 1,1 0 1,0 -2,0 M 671.71 12 m -0.5, 0 a 0.5,0.5 0 1,0 1,0 a 0.5,0.5 0 1,0 -1,0  M671.71 12 L671.71 12 659.71 12 M665.71 18 L665.71 18 665.71 6" id="h4197443713" class="r"></path><path d="M 325.38 150.57 m -1, 0 a 1,1 0 1,0 2,0 a 1,1 0 1,0 -2,0 M 325.38 150.57 m -0.5, 0 a 0.5,0.5 0 1,0 1,0 a 0.5,0.5 0 1,0 -1,0  M325.38 150.57 L325.38 150.57 337.38 150.57 M 325.38 156.57 m -1, 0 a 1,1 0 1,0 2,0 a 1,1 0 1,0 -2,0 M 325.38 156.57 m -0.5, 0 a 0.5,0.5 0 1,0 1,0 a 0.5,0.5 0 1,0 -1,0  M325.38 156.57 L325.38 156.57 332.38 150.57 325.38 144.57 M 325.38 144.57 m -1, 0 a 1,1 0 1,0 2,0 a 1,1 0 1,0 -2,0 M 325.38 144.57 m -0.5, 0 a 0.5,0.5 0 1,0 1,0 a 0.5,0.5 0 1,0 -1,0  M337.38 150.57 Q 419.25 150.57, 501.12 292.43 T 664.86 434.29 M 676.86 434.29 m -1, 0 a 1,1 0 1,0 2,0 a 1,1 0 1,0 -2,0 M 676.86 434.29 m -0.5, 0 a 0.5,0.5 0 1,0 1,0 a 0.5,0.5 0 1,0 -1,0  M676.86 434.29 L676.86 434.29 664.86 434.29 M670.86 440.29 L670.86 440.29 670.86 428.29" id="h4191571811" class="r"></path><path d="M 220.23 430.86 m -1, 0 a 1,1 0 1,0 2,0 a 1,1 0 1,0 -2,0 M 220.23 430.86 m -0.5, 0 a 0.5,0.5 0 1,0 1,0 a 0.5,0.5 0 1,0 -1,0  M220.23 430.86 L220.23 430.86 232.23 430.86 M 220.23 436.86 m -1, 0 a 1,1 0 1,0 2,0 a 1,1 0 1,0 -2,0 M 220.23 436.86 m -0.5, 0 a 0.5,0.5 0 1,0 1,0 a 0.5,0.5 0 1,0 -1,0  M220.23 436.86 L220.23 436.86 227.23 430.86 220.23 424.86 M 220.23 424.86 m -1, 0 a 1,1 0 1,0 2,0 a 1,1 0 1,0 -2,0 M 220.23 424.86 m -0.5, 0 a 0.5,0.5 0 1,0 1,0 a 0.5,0.5 0 1,0 -1,0  M232.23 430.86 Q 339 430.86, 445.76 312 T 659.29 193.14 M 671.29 193.14 m -1, 0 a 1,1 0 1,0 2,0 a 1,1 0 1,0 -2,0 M 671.29 193.14 m -0.5, 0 a 0.5,0.5 0 1,0 1,0 a 0.5,0.5 0 1,0 -1,0  M671.29 193.14 L671.29 193.14 659.29 193.14 M665.29 199.14 L665.29 199.14 665.29 187.14" id="h3443938730" class="r"></path><path d="M 220.23 455.86 m -1, 0 a 1,1 0 1,0 2,0 a 1,1 0 1,0 -2,0 M 220.23 455.86 m -0.5, 0 a 0.5,0.5 0 1,0 1,0 a 0.5,0.5 0 1,0 -1,0  M220.23 455.86 L220.23 455.86 232.23 455.86 M 220.23 461.86 m -1, 0 a 1,1 0 1,0 2,0 a 1,1 0 1,0 -2,0 M 220.23 461.86 m -0.5, 0 a 0.5,0.5 0 1,0 1,0 a 0.5,0.5 0 1,0 -1,0  M220.23 461.86 L220.23 461.86 227.23 455.86 220.23 449.86 M 220.23 449.86 m -1, 0 a 1,1 0 1,0 2,0 a 1,1 0 1,0 -2,0 M 220.23 449.86 m -0.5, 0 a 0.5,0.5 0 1,0 1,0 a 0.5,0.5 0 1,0 -1,0  M232.23 455.86 Q 339.1 455.86, 445.97 233.93 T 659.71 12 M 671.71 12 m -1, 0 a 1,1 0 1,0 2,0 a 1,1 0 1,0 -2,0 M 671.71 12 m -0.5, 0 a 0.5,0.5 0 1,0 1,0 a 0.5,0.5 0 1,0 -1,0  M671.71 12 L671.71 12 659.71 12 M665.71 18 L665.71 18 665.71 6" id="h470968161" class="r"></path><path d="M 220.23 530.86 m -1, 0 a 1,1 0 1,0 2,0 a 1,1 0 1,0 -2,0 M 220.23 530.86 m -0.5, 0 a 0.5,0.5 0 1,0 1,0 a 0.5,0.5 0 1,0 -1,0  M220.23 530.86 L220.23 530.86 232.23 530.86 M 220.23 536.86 m -1, 0 a 1,1 0 1,0 2,0 a 1,1 0 1,0 -2,0 M 220.23 536.86 m -0.5, 0 a 0.5,0.5 0 1,0 1,0 a 0.5,0.5 0 1,0 -1,0  M220.23 536.86 L220.23 536.86 227.23 530.86 220.23 524.86 M 220.23 524.86 m -1, 0 a 1,1 0 1,0 2,0 a 1,1 0 1,0 -2,0 M 220.23 524.86 m -0.5, 0 a 0.5,0.5 0 1,0 1,0 a 0.5,0.5 0 1,0 -1,0  M232.23 530.86 Q 340.39 530.86, 448.55 482.58 T 664.86 434.29 M 676.86 434.29 m -1, 0 a 1,1 0 1,0 2,0 a 1,1 0 1,0 -2,0 M 676.86 434.29 m -0.5, 0 a 0.5,0.5 0 1,0 1,0 a 0.5,0.5 0 1,0 -1,0  M676.86 434.29 L676.86 434.29 664.86 434.29 M670.86 440.29 L670.86 440.29 670.86 428.29" id="h3918560266" class="r"></path><path d="M 465.24 685.14 m -1, 0 a 1,1 0 1,0 2,0 a 1,1 0 1,0 -2,0 M 465.24 685.14 m -0.5, 0 a 0.5,0.5 0 1,0 1,0 a 0.5,0.5 0 1,0 -1,0  M465.24 685.14 L465.24 685.14 477.24 685.14 M 465.24 691.14 m -1, 0 a 1,1 0 1,0 2,0 a 1,1 0 1,0 -2,0 M 465.24 691.14 m -0.5, 0 a 0.5,0.5 0 1,0 1,0 a 0.5,0.5 0 1,0 -1,0  M465.24 691.14 L465.24 691.14 472.24 685.14 465.24 679.14 M 465.24 679.14 m -1, 0 a 1,1 0 1,0 2,0 a 1,1 0 1,0 -2,0 M 465.24 679.14 m -0.5, 0 a 0.5,0.5 0 1,0 1,0 a 0.5,0.5 0 1,0 -1,0  M477.24 685.14 Q 522.76 685.14, 568.27 439.14 T 659.29 193.14 M 671.29 193.14 m -1, 0 a 1,1 0 1,0 2,0 a 1,1 0 1,0 -2,0 M 671.29 193.14 m -0.5, 0 a 0.5,0.5 0 1,0 1,0 a 0.5,0.5 0 1,0 -1,0  M671.29 193.14 L671.29 193.14 659.29 193.14 M665.29 199.14 L665.29 199.14 665.29 187.14" id="h1659765098" class="r"></path><path d="M 465.24 710.14 m -1, 0 a 1,1 0 1,0 2,0 a 1,1 0 1,0 -2,0 M 465.24 710.14 m -0.5, 0 a 0.5,0.5 0 1,0 1,0 a 0.5,0.5 0 1,0 -1,0  M465.24 710.14 L465.24 710.14 477.24 710.14 M 465.24 716.14 m -1, 0 a 1,1 0 1,0 2,0 a 1,1 0 1,0 -2,0 M 465.24 716.14 m -0.5, 0 a 0.5,0.5 0 1,0 1,0 a 0.5,0.5 0 1,0 -1,0  M465.24 716.14 L465.24 716.14 472.24 710.14 465.24 704.14 M 465.24 704.14 m -1, 0 a 1,1 0 1,0 2,0 a 1,1 0 1,0 -2,0 M 465.24 704.14 m -0.5, 0 a 0.5,0.5 0 1,0 1,0 a 0.5,0.5 0 1,0 -1,0  M477.24 710.14 Q 522.86 710.14, 568.48 361.07 T 659.71 12 M 671.71 12 m -1, 0 a 1,1 0 1,0 2,0 a 1,1 0 1,0 -2,0 M 671.71 12 m -0.5, 0 a 0.5,0.5 0 1,0 1,0 a 0.5,0.5 0 1,0 -1,0  M671.71 12 L671.71 12 659.71 12 M665.71 18 L665.71 18 665.71 6" id="h1016113578" class="r"></path><path d="M 465.24 810.14 m -1, 0 a 1,1 0 1,0 2,0 a 1,1 0 1,0 -2,0 M 465.24 810.14 m -0.5, 0 a 0.5,0.5 0 1,0 1,0 a 0.5,0.5 0 1,0 -1,0  M465.24 810.14 L465.24 810.14 477.24 810.14 M 465.24 816.14 m -1, 0 a 1,1 0 1,0 2,0 a 1,1 0 1,0 -2,0 M 465.24 816.14 m -0.5, 0 a 0.5,0.5 0 1,0 1,0 a 0.5,0.5 0 1,0 -1,0  M465.24 816.14 L465.24 816.14 472.24 810.14 465.24 804.14 M 465.24 804.14 m -1, 0 a 1,1 0 1,0 2,0 a 1,1 0 1,0 -2,0 M 465.24 804.14 m -0.5, 0 a 0.5,0.5 0 1,0 1,0 a 0.5,0.5 0 1,0 -1,0  M477.24 810.14 Q 524.15 810.14, 571.05 622.22 T 664.86 434.29 M 676.86 434.29 m -1, 0 a 1,1 0 1,0 2,0 a 1,1 0 1,0 -2,0 M 676.86 434.29 m -0.5, 0 a 0.5,0.5 0 1,0 1,0 a 0.5,0.5 0 1,0 -1,0  M676.86 434.29 L676.86 434.29 664.86 434.29 M670.86 440.29 L670.86 440.29 670.86 428.29" id="h3322990678" class="r"></path><path d="M 1350.86 32.56999999999999 m -1, 0 a 1,1 0 1,0 2,0 a 1,1 0 1,0 -2,0 M 1350.86 32.56999999999999 m -0.5, 0 a 0.5,0.5 0 1,0 1,0 a 0.5,0.5 0 1,0 -1,0  M1350.86 32.56999999999999 L1350.86 32.56999999999999 1338.86 32.56999999999999 M 1350.86 38.56999999999999 m -1, 0 a 1,1 0 1,0 2,0 a 1,1 0 1,0 -2,0 M 1350.86 38.56999999999999 m -0.5, 0 a 0.5,0.5 0 1,0 1,0 a 0.5,0.5 0 1,0 -1,0  M1350.86 38.56999999999999 L1350.86 38.56999999999999 1343.86 32.56999999999999 1350.86 26.569999999999993 M 1350.86 26.569999999999993 m -1, 0 a 1,1 0 1,0 2,0 a 1,1 0 1,0 -2,0 M 1350.86 26.569999999999993 m -0.5, 0 a 0.5,0.5 0 1,0 1,0 a 0.5,0.5 0 1,0 -1,0  M1338.86 32.56999999999999 Q 1218.49 32.56999999999999, 1098.12 112.85 T 857.38 193.14 M 845.38 193.14 m -1, 0 a 1,1 0 1,0 2,0 a 1,1 0 1,0 -2,0 M 845.38 193.14 m -0.5, 0 a 0.5,0.5 0 1,0 1,0 a 0.5,0.5 0 1,0 -1,0  M845.38 193.14 L845.38 193.14 857.38 193.14 M851.38 199.14 L851.38 199.14 851.38 187.14" id="h1913344156" class="r"></path><path d="M 1350.86 57.56999999999999 m -1, 0 a 1,1 0 1,0 2,0 a 1,1 0 1,0 -2,0 M 1350.86 57.56999999999999 m -0.5, 0 a 0.5,0.5 0 1,0 1,0 a 0.5,0.5 0 1,0 -1,0  M1350.86 57.56999999999999 L1350.86 57.56999999999999 1338.86 57.56999999999999 M 1350.86 63.56999999999999 m -1, 0 a 1,1 0 1,0 2,0 a 1,1 0 1,0 -2,0 M 1350.86 63.56999999999999 m -0.5, 0 a 0.5,0.5 0 1,0 1,0 a 0.5,0.5 0 1,0 -1,0  M1350.86 63.56999999999999 L1350.86 63.56999999999999 1343.86 57.56999999999999 1350.86 51.56999999999999 M 1350.86 51.56999999999999 m -1, 0 a 1,1 0 1,0 2,0 a 1,1 0 1,0 -2,0 M 1350.86 51.56999999999999 m -0.5, 0 a 0.5,0.5 0 1,0 1,0 a 0.5,0.5 0 1,0 -1,0  M1338.86 57.56999999999999 Q 1218.59 57.56999999999999, 1098.33 34.78 T 857.8 12 M 845.8 12 m -1, 0 a 1,1 0 1,0 2,0 a 1,1 0 1,0 -2,0 M 845.8 12 m -0.5, 0 a 0.5,0.5 0 1,0 1,0 a 0.5,0.5 0 1,0 -1,0  M845.8 12 L845.8 12 857.8 12 M851.8 18 L851.8 18 851.8 6" id="h1290529351" class="r"></path><path d="M 1350.86 157.57 m -1, 0 a 1,1 0 1,0 2,0 a 1,1 0 1,0 -2,0 M 1350.86 157.57 m -0.5, 0 a 0.5,0.5 0 1,0 1,0 a 0.5,0.5 0 1,0 -1,0  M1350.86 157.57 L1350.86 157.57 1338.86 157.57 M 1350.86 163.57 m -1, 0 a 1,1 0 1,0 2,0 a 1,1 0 1,0 -2,0 M 1350.86 163.57 m -0.5, 0 a 0.5,0.5 0 1,0 1,0 a 0.5,0.5 0 1,0 -1,0  M1350.86 163.57 L1350.86 163.57 1343.86 157.57 1350.86 151.57 M 1350.86 151.57 m -1, 0 a 1,1 0 1,0 2,0 a 1,1 0 1,0 -2,0 M 1350.86 151.57 m -0.5, 0 a 0.5,0.5 0 1,0 1,0 a 0.5,0.5 0 1,0 -1,0  M1338.86 157.57 Q 1222.66 157.57, 1106.46 295.93 T 874.05 434.29 M 862.05 434.29 m -1, 0 a 1,1 0 1,0 2,0 a 1,1 0 1,0 -2,0 M 862.05 434.29 m -0.5, 0 a 0.5,0.5 0 1,0 1,0 a 0.5,0.5 0 1,0 -1,0  M862.05 434.29 L862.05 434.29 874.05 434.29 M868.05 440.29 L868.05 440.29 868.05 428.29" id="h1356032034" class="r"></path><path d="M 1134.42 337.71000000000004 m -1, 0 a 1,1 0 1,0 2,0 a 1,1 0 1,0 -2,0 M 1134.42 337.71000000000004 m -0.5, 0 a 0.5,0.5 0 1,0 1,0 a 0.5,0.5 0 1,0 -1,0  M1134.42 337.71000000000004 L1134.42 337.71000000000004 1122.42 337.71000000000004 M 1134.42 343.71000000000004 m -1, 0 a 1,1 0 1,0 2,0 a 1,1 0 1,0 -2,0 M 1134.42 343.71000000000004 m -0.5, 0 a 0.5,0.5 0 1,0 1,0 a 0.5,0.5 0 1,0 -1,0  M1134.42 343.71000000000004 L1134.42 343.71000000000004 1127.42 337.71000000000004 1134.42 331.71000000000004 M 1134.42 331.71000000000004 m -1, 0 a 1,1 0 1,0 2,0 a 1,1 0 1,0 -2,0 M 1134.42 331.71000000000004 m -0.5, 0 a 0.5,0.5 0 1,0 1,0 a 0.5,0.5 0 1,0 -1,0  M1122.42 337.71000000000004 Q 1056.16 337.71000000000004, 989.9 265.43 T 857.38 193.14 M 845.38 193.14 m -1, 0 a 1,1 0 1,0 2,0 a 1,1 0 1,0 -2,0 M 845.38 193.14 m -0.5, 0 a 0.5,0.5 0 1,0 1,0 a 0.5,0.5 0 1,0 -1,0  M845.38 193.14 L845.38 193.14 857.38 193.14 M851.38 199.14 L851.38 199.14 851.38 187.14" id="h3359090007" class="r"></path><path d="M 1134.42 362.71000000000004 m -1, 0 a 1,1 0 1,0 2,0 a 1,1 0 1,0 -2,0 M 1134.42 362.71000000000004 m -0.5, 0 a 0.5,0.5 0 1,0 1,0 a 0.5,0.5 0 1,0 -1,0  M1134.42 362.71000000000004 L1134.42 362.71000000000004 1122.42 362.71000000000004 M 1134.42 368.71000000000004 m -1, 0 a 1,1 0 1,0 2,0 a 1,1 0 1,0 -2,0 M 1134.42 368.71000000000004 m -0.5, 0 a 0.5,0.5 0 1,0 1,0 a 0.5,0.5 0 1,0 -1,0  M1134.42 368.71000000000004 L1134.42 368.71000000000004 1127.42 362.71000000000004 1134.42 356.71000000000004 M 1134.42 356.71000000000004 m -1, 0 a 1,1 0 1,0 2,0 a 1,1 0 1,0 -2,0 M 1134.42 356.71000000000004 m -0.5, 0 a 0.5,0.5 0 1,0 1,0 a 0.5,0.5 0 1,0 -1,0  M1122.42 362.71000000000004 Q 1056.27 362.71000000000004, 990.11 187.36 T 857.8 12 M 845.8 12 m -1, 0 a 1,1 0 1,0 2,0 a 1,1 0 1,0 -2,0 M 845.8 12 m -0.5, 0 a 0.5,0.5 0 1,0 1,0 a 0.5,0.5 0 1,0 -1,0  M845.8 12 L845.8 12 857.8 12 M851.8 18 L851.8 18 851.8 6" id="h2889854020" class="r"></path><path d="M 1134.42 437.71000000000004 m -1, 0 a 1,1 0 1,0 2,0 a 1,1 0 1,0 -2,0 M 1134.42 437.71000000000004 m -0.5, 0 a 0.5,0.5 0 1,0 1,0 a 0.5,0.5 0 1,0 -1,0  M1134.42 437.71000000000004 L1134.42 437.71000000000004 1122.42 437.71000000000004 M 1134.42 443.71000000000004 m -1, 0 a 1,1 0 1,0 2,0 a 1,1 0 1,0 -2,0 M 1134.42 443.71000000000004 m -0.5, 0 a 0.5,0.5 0 1,0 1,0 a 0.5,0.5 0 1,0 -1,0  M1134.42 443.71000000000004 L1134.42 443.71000000000004 1127.42 437.71000000000004 1134.42 431.71000000000004 M 1134.42 431.71000000000004 m -1, 0 a 1,1 0 1,0 2,0 a 1,1 0 1,0 -2,0 M 1134.42 431.71000000000004 m -0.5, 0 a 0.5,0.5 0 1,0 1,0 a 0.5,0.5 0 1,0 -1,0  M1122.42 437.71000000000004 Q 1060.33 437.71000000000004, 998.24 436 T 874.05 434.29 M 862.05 434.29 m -1, 0 a 1,1 0 1,0 2,0 a 1,1 0 1,0 -2,0 M 862.05 434.29 m -0.5, 0 a 0.5,0.5 0 1,0 1,0 a 0.5,0.5 0 1,0 -1,0  M862.05 434.29 L862.05 434.29 874.05 434.29 M868.05 440.29 L868.05 440.29 868.05 428.29" id="h1759997153" class="r"></path><path d="M 1006 666 m -1, 0 a 1,1 0 1,0 2,0 a 1,1 0 1,0 -2,0 M 1006 666 m -0.5, 0 a 0.5,0.5 0 1,0 1,0 a 0.5,0.5 0 1,0 -1,0  M1006 666 L1006 666 994 666 M 1006 672 m -1, 0 a 1,1 0 1,0 2,0 a 1,1 0 1,0 -2,0 M 1006 672 m -0.5, 0 a 0.5,0.5 0 1,0 1,0 a 0.5,0.5 0 1,0 -1,0  M1006 672 L1006 672 999 666 1006 660 M 1006 660 m -1, 0 a 1,1 0 1,0 2,0 a 1,1 0 1,0 -2,0 M 1006 660 m -0.5, 0 a 0.5,0.5 0 1,0 1,0 a 0.5,0.5 0 1,0 -1,0  M994 666 Q 959.85 666, 925.69 429.57 T 857.38 193.14 M 845.38 193.14 m -1, 0 a 1,1 0 1,0 2,0 a 1,1 0 1,0 -2,0 M 845.38 193.14 m -0.5, 0 a 0.5,0.5 0 1,0 1,0 a 0.5,0.5 0 1,0 -1,0  M845.38 193.14 L845.38 193.14 857.38 193.14 M851.38 199.14 L851.38 199.14 851.38 187.14" id="h4264567364" class="r"></path><path d="M 1006 691 m -1, 0 a 1,1 0 1,0 2,0 a 1,1 0 1,0 -2,0 M 1006 691 m -0.5, 0 a 0.5,0.5 0 1,0 1,0 a 0.5,0.5 0 1,0 -1,0  M1006 691 L1006 691 994 691 M 1006 697 m -1, 0 a 1,1 0 1,0 2,0 a 1,1 0 1,0 -2,0 M 1006 697 m -0.5, 0 a 0.5,0.5 0 1,0 1,0 a 0.5,0.5 0 1,0 -1,0  M1006 697 L1006 697 999 691 1006 685 M 1006 685 m -1, 0 a 1,1 0 1,0 2,0 a 1,1 0 1,0 -2,0 M 1006 685 m -0.5, 0 a 0.5,0.5 0 1,0 1,0 a 0.5,0.5 0 1,0 -1,0  M994 691 Q 959.95 691, 925.9 351.5 T 857.8 12 M 845.8 12 m -1, 0 a 1,1 0 1,0 2,0 a 1,1 0 1,0 -2,0 M 845.8 12 m -0.5, 0 a 0.5,0.5 0 1,0 1,0 a 0.5,0.5 0 1,0 -1,0  M845.8 12 L845.8 12 857.8 12 M851.8 18 L851.8 18 851.8 6" id="h2856069540" class="r"></path><path d="M 1006 791 m -1, 0 a 1,1 0 1,0 2,0 a 1,1 0 1,0 -2,0 M 1006 791 m -0.5, 0 a 0.5,0.5 0 1,0 1,0 a 0.5,0.5 0 1,0 -1,0  M1006 791 L1006 791 994 791 M 1006 797 m -1, 0 a 1,1 0 1,0 2,0 a 1,1 0 1,0 -2,0 M 1006 797 m -0.5, 0 a 0.5,0.5 0 1,0 1,0 a 0.5,0.5 0 1,0 -1,0  M1006 797 L1006 797 999 791 1006 785 M 1006 785 m -1, 0 a 1,1 0 1,0 2,0 a 1,1 0 1,0 -2,0 M 1006 785 m -0.5, 0 a 0.5,0.5 0 1,0 1,0 a 0.5,0.5 0 1,0 -1,0  M994 791 Q 964.02 791, 934.03 612.65 T 874.05 434.29 M 862.05 434.29 m -1, 0 a 1,1 0 1,0 2,0 a 1,1 0 1,0 -2,0 M 862.05 434.29 m -0.5, 0 a 0.5,0.5 0 1,0 1,0 a 0.5,0.5 0 1,0 -1,0  M862.05 434.29 L862.05 434.29 874.05 434.29 M868.05 440.29 L868.05 440.29 868.05 428.29" id="h1262158959" class="r"></path></g><g class="hrs"></g><g class="ts"><svg width="174.09" height="100" x="671.71" y="-70" id="h86870497" class="t"><rect height="40" width="174.09" class="th"></rect><text x="13" y="25" class="tht">caregiver</text><rect height="60" width="174.09" class="t-bg"></rect><text x="13" y="61" class="tf">column_name<tspan x="161.09" class="ty">data_type</tspan></text><text x="13" y="86" class="tf pk">caregiver_id<tspan x="161.09" class="ty">INT64</tspan></text><path d="M7,14A2,2 0 0,1 5,12A2,2 0 0,1 7,10A2,2 0 0,1 9,12A2,2 0 0,1 7,14M12.65,10C11.83,7.67 9.61,6 7, 6A6, 6 0 0, 0 1, 12A6, 6 0 0, 0 7, 18C9.61, 18 11.83, 16.33 12.65, 14H17V18H21V14H23V10H12.65Z" class="i pk" transform="translate(108.412265625, 73) scale(0.65)"></path></svg><svg width="174.09" height="350" x="151.29" y="-81.43" id="h4199594040" class="t"><rect height="40" width="174.09" class="th"></rect><text x="13" y="25" class="tht">chartevents</text><rect height="310" width="174.09" class="t-bg"></rect><text x="13" y="61" class="tf">column_name<tspan x="161.09" class="ty">data_type</tspan></text><text x="13" y="86" class="tf">subject_id<tspan x="161.09" class="ty">INT64</tspan></text><text x="13" y="111" class="tf">hadm_id<tspan x="161.09" class="ty">INT64</tspan></text><text x="13" y="136" class="tf fk">stay_id<tspan x="161.09" class="ty">INT64</tspan></text><text x="13" y="161" class="tf fk">caregiver_id<tspan x="161.09" class="ty">INT64</tspan></text><text x="13" y="186" class="tf">charttime<tspan x="161.09" class="ty">DATETIME</tspan></text><text x="13" y="211" class="tf">storetime<tspan x="161.09" class="ty">DATETIME</tspan></text><text x="13" y="236" class="tf fk">itemid<tspan x="161.09" class="ty">INT64</tspan></text><text x="13" y="261" class="tf">value<tspan x="161.09" class="ty">STRING</tspan></text><text x="13" y="286" class="tf">valuenum<tspan x="161.09" class="ty">FLOAT64</tspan></text><text x="13" y="311" class="tf">valueuom<tspan x="161.09" class="ty">STRING</tspan></text><text x="13" y="336" class="tf">warning<tspan x="161.09" class="ty">INT64</tspan></text></svg><svg width="185.19" height="300" x="676.86" y="352.29" id="h1121805821" class="t"><rect height="40" width="185.19" class="th"></rect><text x="13" y="25" class="tht">d_items</text><rect height="260" width="185.19" class="t-bg"></rect><text x="13" y="61" class="tf">column_name<tspan x="172.19" class="ty">data_type</tspan></text><text x="13" y="86" class="tf pk">itemid<tspan x="172.19" class="ty">INT64</tspan></text><path d="M7,14A2,2 0 0,1 5,12A2,2 0 0,1 7,10A2,2 0 0,1 9,12A2,2 0 0,1 7,14M12.65,10C11.83,7.67 9.61,6 7, 6A6, 6 0 0, 0 1, 12A6, 6 0 0, 0 7, 18C9.61, 18 11.83, 16.33 12.65, 14H17V18H21V14H23V10H12.65Z" class="i pk" transform="translate(119.512265625, 73) scale(0.65)"></path><text x="13" y="111" class="tf">label<tspan x="172.19" class="ty">STRING</tspan></text><text x="13" y="136" class="tf">abbreviation<tspan x="172.19" class="ty">STRING</tspan></text><text x="13" y="161" class="tf">linksto<tspan x="172.19" class="ty">STRING</tspan></text><text x="13" y="186" class="tf">category<tspan x="172.19" class="ty">STRING</tspan></text><text x="13" y="211" class="tf">unitname<tspan x="172.19" class="ty">STRING</tspan></text><text x="13" y="236" class="tf">param_type<tspan x="172.19" class="ty">STRING</tspan></text><text x="13" y="261" class="tf">lownormalvalue<tspan x="172.19" class="ty">FLOAT64</tspan></text><text x="13" y="286" class="tf">highnormalvalue<tspan x="172.19" class="ty">FLOAT64</tspan></text></svg><svg width="174.09" height="325" x="46.14" y="298.86" id="h1814316593" class="t"><rect height="40" width="174.09" class="th"></rect><text x="13" y="25" class="tht">datetimeevents</text><rect height="285" width="174.09" class="t-bg"></rect><text x="13" y="61" class="tf">column_name<tspan x="161.09" class="ty">data_type</tspan></text><text x="13" y="86" class="tf">subject_id<tspan x="161.09" class="ty">INT64</tspan></text><text x="13" y="111" class="tf">hadm_id<tspan x="161.09" class="ty">INT64</tspan></text><text x="13" y="136" class="tf fk">stay_id<tspan x="161.09" class="ty">INT64</tspan></text><text x="13" y="161" class="tf fk">caregiver_id<tspan x="161.09" class="ty">INT64</tspan></text><text x="13" y="186" class="tf">charttime<tspan x="161.09" class="ty">DATETIME</tspan></text><text x="13" y="211" class="tf">storetime<tspan x="161.09" class="ty">DATETIME</tspan></text><text x="13" y="236" class="tf fk">itemid<tspan x="161.09" class="ty">INT64</tspan></text><text x="13" y="261" class="tf">value<tspan x="161.09" class="ty">DATETIME</tspan></text><text x="13" y="286" class="tf">valueuom<tspan x="161.09" class="ty">STRING</tspan></text><text x="13" y="311" class="tf">warning<tspan x="161.09" class="ty">INT64</tspan></text></svg><svg width="174.09" height="275" x="671.29" y="61.14" id="h1681015576" class="t"><rect height="40" width="174.09" class="th"></rect><text x="13" y="25" class="tht">icustays</text><rect height="235" width="174.09" class="t-bg"></rect><text x="13" y="61" class="tf">column_name<tspan x="161.09" class="ty">data_type</tspan></text><text x="13" y="86" class="tf">subject_id<tspan x="161.09" class="ty">INT64</tspan></text><text x="13" y="111" class="tf">hadm_id<tspan x="161.09" class="ty">INT64</tspan></text><text x="13" y="136" class="tf pk">stay_id<tspan x="161.09" class="ty">INT64</tspan></text><path d="M7,14A2,2 0 0,1 5,12A2,2 0 0,1 7,10A2,2 0 0,1 9,12A2,2 0 0,1 7,14M12.65,10C11.83,7.67 9.61,6 7, 6A6, 6 0 0, 0 1, 12A6, 6 0 0, 0 7, 18C9.61, 18 11.83, 16.33 12.65, 14H17V18H21V14H23V10H12.65Z" class="i pk" transform="translate(108.412265625, 123) scale(0.65)"></path><text x="13" y="161" class="tf">first_careunit<tspan x="161.09" class="ty">STRING</tspan></text><text x="13" y="186" class="tf">last_careunit<tspan x="161.09" class="ty">STRING</tspan></text><text x="13" y="211" class="tf">intime<tspan x="161.09" class="ty">DATETIME</tspan></text><text x="13" y="236" class="tf">outtime<tspan x="161.09" class="ty">DATETIME</tspan></text><text x="13" y="261" class="tf">los<tspan x="161.09" class="ty">FLOAT64</tspan></text></svg><svg width="181.38" height="500" x="283.86" y="553.14" id="h3391707257" class="t"><rect height="40" width="181.38" class="th"></rect><text x="13" y="25" class="tht">ingredientevents</text><rect height="460" width="181.38" class="t-bg"></rect><text x="13" y="61" class="tf">column_name<tspan x="168.38" class="ty">data_type</tspan></text><text x="13" y="86" class="tf">subject_id<tspan x="168.38" class="ty">INT64</tspan></text><text x="13" y="111" class="tf">hadm_id<tspan x="168.38" class="ty">INT64</tspan></text><text x="13" y="136" class="tf fk">stay_id<tspan x="168.38" class="ty">INT64</tspan></text><text x="13" y="161" class="tf fk">caregiver_id<tspan x="168.38" class="ty">INT64</tspan></text><text x="13" y="186" class="tf">starttime<tspan x="168.38" class="ty">DATETIME</tspan></text><text x="13" y="211" class="tf">endtime<tspan x="168.38" class="ty">DATETIME</tspan></text><text x="13" y="236" class="tf">storetime<tspan x="168.38" class="ty">DATETIME</tspan></text><text x="13" y="261" class="tf fk">itemid<tspan x="168.38" class="ty">INT64</tspan></text><text x="13" y="286" class="tf">amount<tspan x="168.38" class="ty">FLOAT64</tspan></text><text x="13" y="311" class="tf">amountuom<tspan x="168.38" class="ty">STRING</tspan></text><text x="13" y="336" class="tf">rate<tspan x="168.38" class="ty">FLOAT64</tspan></text><text x="13" y="361" class="tf">rateuom<tspan x="168.38" class="ty">STRING</tspan></text><text x="13" y="386" class="tf">orderid<tspan x="168.38" class="ty">INT64</tspan></text><text x="13" y="411" class="tf">linkorderid<tspan x="168.38" class="ty">INT64</tspan></text><text x="13" y="436" class="tf">statusdescription<tspan x="168.38" class="ty">STRING</tspan></text><text x="13" y="461" class="tf">originalamount<tspan x="168.38" class="ty">FLOAT64</tspan></text><text x="13" y="486" class="tf">originalrate<tspan x="168.38" class="ty">FLOAT64</tspan></text></svg><svg width="259.43" height="725" x="1350.86" y="-99.43" id="h1547637955" class="t"><rect height="40" width="259.43" class="th"></rect><text x="13" y="25" class="tht">inputevents</text><rect height="685" width="259.43" class="t-bg"></rect><text x="13" y="61" class="tf">column_name<tspan x="246.43" class="ty">data_type</tspan></text><text x="13" y="86" class="tf">subject_id<tspan x="246.43" class="ty">INT64</tspan></text><text x="13" y="111" class="tf">hadm_id<tspan x="246.43" class="ty">INT64</tspan></text><text x="13" y="136" class="tf fk">stay_id<tspan x="246.43" class="ty">INT64</tspan></text><text x="13" y="161" class="tf fk">caregiver_id<tspan x="246.43" class="ty">INT64</tspan></text><text x="13" y="186" class="tf">starttime<tspan x="246.43" class="ty">DATETIME</tspan></text><text x="13" y="211" class="tf">endtime<tspan x="246.43" class="ty">DATETIME</tspan></text><text x="13" y="236" class="tf">storetime<tspan x="246.43" class="ty">DATETIME</tspan></text><text x="13" y="261" class="tf fk">itemid<tspan x="246.43" class="ty">INT64</tspan></text><text x="13" y="286" class="tf">amount<tspan x="246.43" class="ty">FLOAT64</tspan></text><text x="13" y="311" class="tf">amountuom<tspan x="246.43" class="ty">STRING</tspan></text><text x="13" y="336" class="tf">rate<tspan x="246.43" class="ty">FLOAT64</tspan></text><text x="13" y="361" class="tf">rateuom<tspan x="246.43" class="ty">STRING</tspan></text><text x="13" y="386" class="tf">orderid<tspan x="246.43" class="ty">INT64</tspan></text><text x="13" y="411" class="tf">linkorderid<tspan x="246.43" class="ty">INT64</tspan></text><text x="13" y="436" class="tf">ordercategoryname<tspan x="246.43" class="ty">STRING</tspan></text><text x="13" y="461" class="tf">secondaryordercategoryname<tspan x="246.43" class="ty">STRING</tspan></text><text x="13" y="486" class="tf">ordercomponenttypedescription<tspan x="246.43" class="ty">STRING</tspan></text><text x="13" y="511" class="tf">ordercategorydescription<tspan x="246.43" class="ty">STRING</tspan></text><text x="13" y="536" class="tf">patientweight<tspan x="246.43" class="ty">FLOAT64</tspan></text><text x="13" y="561" class="tf">totalamount<tspan x="246.43" class="ty">FLOAT64</tspan></text><text x="13" y="586" class="tf">totalamountuom<tspan x="246.43" class="ty">STRING</tspan></text><text x="13" y="611" class="tf">isopenbag<tspan x="246.43" class="ty">INT64</tspan></text><text x="13" y="636" class="tf">continueinnextdept<tspan x="246.43" class="ty">INT64</tspan></text><text x="13" y="661" class="tf">statusdescription<tspan x="246.43" class="ty">STRING</tspan></text><text x="13" y="686" class="tf">originalamount<tspan x="246.43" class="ty">FLOAT64</tspan></text><text x="13" y="711" class="tf">originalrate<tspan x="246.43" class="ty">FLOAT64</tspan></text></svg><svg width="174.09" height="300" x="1134.42" y="205.71" id="h1512623306" class="t"><rect height="40" width="174.09" class="th"></rect><text x="13" y="25" class="tht">outputevents</text><rect height="260" width="174.09" class="t-bg"></rect><text x="13" y="61" class="tf">column_name<tspan x="161.09" class="ty">data_type</tspan></text><text x="13" y="86" class="tf">subject_id<tspan x="161.09" class="ty">INT64</tspan></text><text x="13" y="111" class="tf">hadm_id<tspan x="161.09" class="ty">INT64</tspan></text><text x="13" y="136" class="tf fk">stay_id<tspan x="161.09" class="ty">INT64</tspan></text><text x="13" y="161" class="tf fk">caregiver_id<tspan x="161.09" class="ty">INT64</tspan></text><text x="13" y="186" class="tf">charttime<tspan x="161.09" class="ty">DATETIME</tspan></text><text x="13" y="211" class="tf">storetime<tspan x="161.09" class="ty">DATETIME</tspan></text><text x="13" y="236" class="tf fk">itemid<tspan x="161.09" class="ty">INT64</tspan></text><text x="13" y="261" class="tf">value<tspan x="161.09" class="ty">FLOAT64</tspan></text><text x="13" y="286" class="tf">valueuom<tspan x="161.09" class="ty">STRING</tspan></text></svg><svg width="223.4" height="625" x="1006" y="534" id="h2630754388" class="t"><rect height="40" width="223.4" class="th"></rect><text x="13" y="25" class="tht">procedureevents</text><rect height="585" width="223.4" class="t-bg"></rect><text x="13" y="61" class="tf">column_name<tspan x="210.4" class="ty">data_type</tspan></text><text x="13" y="86" class="tf">subject_id<tspan x="210.4" class="ty">INT64</tspan></text><text x="13" y="111" class="tf">hadm_id<tspan x="210.4" class="ty">INT64</tspan></text><text x="13" y="136" class="tf fk">stay_id<tspan x="210.4" class="ty">INT64</tspan></text><text x="13" y="161" class="tf fk">caregiver_id<tspan x="210.4" class="ty">INT64</tspan></text><text x="13" y="186" class="tf">starttime<tspan x="210.4" class="ty">DATETIME</tspan></text><text x="13" y="211" class="tf">endtime<tspan x="210.4" class="ty">DATETIME</tspan></text><text x="13" y="236" class="tf">storetime<tspan x="210.4" class="ty">DATETIME</tspan></text><text x="13" y="261" class="tf fk">itemid<tspan x="210.4" class="ty">INT64</tspan></text><text x="13" y="286" class="tf">value<tspan x="210.4" class="ty">FLOAT64</tspan></text><text x="13" y="311" class="tf">valueuom<tspan x="210.4" class="ty">STRING</tspan></text><text x="13" y="336" class="tf">location<tspan x="210.4" class="ty">STRING</tspan></text><text x="13" y="361" class="tf">locationcategory<tspan x="210.4" class="ty">STRING</tspan></text><text x="13" y="386" class="tf">orderid<tspan x="210.4" class="ty">INT64</tspan></text><text x="13" y="411" class="tf">linkorderid<tspan x="210.4" class="ty">INT64</tspan></text><text x="13" y="436" class="tf">ordercategoryname<tspan x="210.4" class="ty">STRING</tspan></text><text x="13" y="461" class="tf">ordercategorydescription<tspan x="210.4" class="ty">STRING</tspan></text><text x="13" y="486" class="tf">patientweight<tspan x="210.4" class="ty">FLOAT64</tspan></text><text x="13" y="511" class="tf">isopenbag<tspan x="210.4" class="ty">INT64</tspan></text><text x="13" y="536" class="tf">continueinnextdept<tspan x="210.4" class="ty">INT64</tspan></text><text x="13" y="561" class="tf">statusdescription<tspan x="210.4" class="ty">STRING</tspan></text><text x="13" y="586" class="tf">ORIGINALAMOUNT<tspan x="210.4" class="ty">FLOAT64</tspan></text><text x="13" y="611" class="tf">ORIGINALRATE<tspan x="210.4" class="ty">FLOAT64</tspan></text></svg></g></g><text class="qdbd-link" x="10" y="20">www.quickdatabasediagrams.com</text></svg>