<svg class="diagram-root" style="background: #f5f6f6" xmlns="http://www.w3.org/2000/svg" xmlns:xlink="http://www.w3.org/1999/xlink"><style>.diagram-root { font-family: "Helvetica Neue", sans-serif; font-size: 12px; } .t { overflow: visible; } .t-bg { y: 40; fill: #fff;   } .th { fill: #005aa0;   } .tht { fill: #fff; font-size: 14px;  } .tf { fill: #323c46; overflow: visible; } .tf.pk { fill: #005aa0; font-weight: bold; } .tf.fk { font-weight: bold; } .ty { fill: #adb1b5; font-weight: normal; text-anchor: end; } .r { fill: transparent; stroke: #c3c3c3; stroke-width: 1; } .l { stroke: 1; } .i { fill: #c2c7ce; stroke: #c2c7ce; } .i.ix { fill: #afb3b6; stroke: #000; } .fa { fill: transparent; overflow: visible; } .fa .bg.hover { fill: #f7f7f7; } .c { cy: 12; r: 4; stroke: #d2d2dc; fill: #d2d2dc; } .hr { fill: transparent; stroke: #323c46; stroke-opacity: 0.035; stroke-width: 13; } .dc { stroke: #fa5a3c; fill: #fa5a3c; } .x { stroke: white; stroke-width: 1; } .hl .th { fill: #1b9bff; } .hl .tht {  } .fhl .bg { fill: #e7f4ff; } .fhls .bg {  } .r.hl { stroke: #1b9bff; } .dim { opacity: 0.25; }</style><g class="drawing-wrapper" transform="translate(-8.000000000000004, 64.2857142857142) scale(1,1)"><g class="rs"><path d="M 204.09 163.43 m -1, 0 a 1,1 0 1,0 2,0 a 1,1 0 1,0 -2,0 M 204.09 163.43 m -0.5, 0 a 0.5,0.5 0 1,0 1,0 a 0.5,0.5 0 1,0 -1,0  M204.09 163.43 L204.09 163.43 216.09 163.43 M 204.09 169.43 m -1, 0 a 1,1 0 1,0 2,0 a 1,1 0 1,0 -2,0 M 204.09 169.43 m -0.5, 0 a 0.5,0.5 0 1,0 1,0 a 0.5,0.5 0 1,0 -1,0  M204.09 169.43 L204.09 169.43 211.09 163.43 204.09 157.43 M 204.09 157.43 m -1, 0 a 1,1 0 1,0 2,0 a 1,1 0 1,0 -2,0 M 204.09 157.43 m -0.5, 0 a 0.5,0.5 0 1,0 1,0 a 0.5,0.5 0 1,0 -1,0  M216.09 163.43 Q 231.79 163.43, 247.49 118.07 T 278.89 72.71000000000001 M 290.89 72.71000000000001 m -1, 0 a 1,1 0 1,0 2,0 a 1,1 0 1,0 -2,0 M 290.89 72.71000000000001 m -0.5, 0 a 0.5,0.5 0 1,0 1,0 a 0.5,0.5 0 1,0 -1,0  M290.89 72.71000000000001 L290.89 72.71000000000001 278.89 72.71000000000001 M284.89 78.71000000000001 L284.89 78.71000000000001 284.89 66.71000000000001" id="h2990891355" class="r"></path><path d="M 554.64 171.82 m -1, 0 a 1,1 0 1,0 2,0 a 1,1 0 1,0 -2,0 M 554.64 171.82 m -0.5, 0 a 0.5,0.5 0 1,0 1,0 a 0.5,0.5 0 1,0 -1,0  M554.64 171.82 L554.64 171.82 542.64 171.82 M 554.64 177.82 m -1, 0 a 1,1 0 1,0 2,0 a 1,1 0 1,0 -2,0 M 554.64 177.82 m -0.5, 0 a 0.5,0.5 0 1,0 1,0 a 0.5,0.5 0 1,0 -1,0  M554.64 177.82 L554.64 177.82 547.64 171.82 554.64 165.82 M 554.64 165.82 m -1, 0 a 1,1 0 1,0 2,0 a 1,1 0 1,0 -2,0 M 554.64 165.82 m -0.5, 0 a 0.5,0.5 0 1,0 1,0 a 0.5,0.5 0 1,0 -1,0  M542.64 171.82 Q 526.23 171.82, 509.81 122.27 T 476.98 72.71000000000001 M 464.98 72.71000000000001 m -1, 0 a 1,1 0 1,0 2,0 a 1,1 0 1,0 -2,0 M 464.98 72.71000000000001 m -0.5, 0 a 0.5,0.5 0 1,0 1,0 a 0.5,0.5 0 1,0 -1,0  M464.98 72.71000000000001 L464.98 72.71000000000001 476.98 72.71000000000001 M470.98 78.71000000000001 L470.98 78.71000000000001 470.98 66.71000000000001" id="h3748123870" class="r"></path></g><g class="hrs"></g><g class="ts"><svg width="174.09" height="225" x="30" y="56.43" id="h2215843918" class="t"><rect height="40" width="174.09" class="th"></rect><text x="13" y="25" class="tht">waveform_note_links</text><rect height="185" width="174.09" class="t-bg"></rect><text x="13" y="61" class="tf">column_name<tspan x="161.09" class="ty">data_type</tspan></text><text x="13" y="86" class="tf">subject_id<tspan x="161.09" class="ty">INT64</tspan></text><text x="13" y="111" class="tf fk">study_id<tspan x="161.09" class="ty">INT64</tspan></text><text x="13" y="136" class="tf">waveform_path<tspan x="161.09" class="ty">STRING</tspan></text><text x="13" y="161" class="tf">note_id<tspan x="161.09" class="ty">STRING</tspan></text><text x="13" y="186" class="tf">note_seq<tspan x="161.09" class="ty">INT64</tspan></text><text x="13" y="211" class="tf">charttime<tspan x="161.09" class="ty">DATETIME</tspan></text></svg><svg width="174.09" height="200" x="290.89" y="-34.29" id="h4122481607" class="t"><rect height="40" width="174.09" class="th"></rect><text x="13" y="25" class="tht">record_list</text><rect height="160" width="174.09" class="t-bg"></rect><text x="13" y="61" class="tf">column_name<tspan x="161.09" class="ty">data_type</tspan></text><text x="13" y="86" class="tf">subject_id<tspan x="161.09" class="ty">INT64</tspan></text><text x="13" y="111" class="tf pk">study_id<tspan x="161.09" class="ty">INT64</tspan></text><path d="M7,14A2,2 0 0,1 5,12A2,2 0 0,1 7,10A2,2 0 0,1 9,12A2,2 0 0,1 7,14M12.65,10C11.83,7.67 9.61,6 7, 6A6, 6 0 0, 0 1, 12A6, 6 0 0, 0 7, 18C9.61, 18 11.83, 16.33 12.65, 14H17V18H21V14H23V10H12.65Z" class="i pk" transform="translate(108.412265625, 98) scale(0.65)"></path><text x="13" y="136" class="tf">file_name<tspan x="161.09" class="ty">STRING</tspan></text><text x="13" y="161" class="tf">ecg_time<tspan x="161.09" class="ty">DATETIME</tspan></text><text x="13" y="186" class="tf">path<tspan x="161.09" class="ty">STRING</tspan></text></svg><svg width="179.3" height="900" x="554.64" y="64.82" id="h3931240572" class="t"><rect height="40" width="179.3" class="th"></rect><text x="13" y="25" class="tht">machine_measurements</text><rect height="860" width="179.3" class="t-bg"></rect><text x="13" y="61" class="tf">column_name<tspan x="166.3" class="ty">data_type</tspan></text><text x="13" y="86" class="tf">subject_id<tspan x="166.3" class="ty">INT64</tspan></text><text x="13" y="111" class="tf fk">study_id<tspan x="166.3" class="ty">INT64</tspan></text><text x="13" y="136" class="tf">cart_id<tspan x="166.3" class="ty">STRING</tspan></text><text x="13" y="161" class="tf">ecg_time<tspan x="166.3" class="ty">DATETIME</tspan></text><text x="13" y="186" class="tf">report_0<tspan x="166.3" class="ty">STRING</tspan></text><text x="13" y="211" class="tf">report_1<tspan x="166.3" class="ty">STRING</tspan></text><text x="13" y="236" class="tf">report_2<tspan x="166.3" class="ty">STRING</tspan></text><text x="13" y="261" class="tf">report_3<tspan x="166.3" class="ty">STRING</tspan></text><text x="13" y="286" class="tf">report_4<tspan x="166.3" class="ty">STRING</tspan></text><text x="13" y="311" class="tf">report_5<tspan x="166.3" class="ty">STRING</tspan></text><text x="13" y="336" class="tf">report_6<tspan x="166.3" class="ty">STRING</tspan></text><text x="13" y="361" class="tf">report_7<tspan x="166.3" class="ty">STRING</tspan></text><text x="13" y="386" class="tf">report_8<tspan x="166.3" class="ty">STRING</tspan></text><text x="13" y="411" class="tf">report_9<tspan x="166.3" class="ty">STRING</tspan></text><text x="13" y="436" class="tf">report_10<tspan x="166.3" class="ty">STRING</tspan></text><text x="13" y="461" class="tf">report_11<tspan x="166.3" class="ty">STRING</tspan></text><text x="13" y="486" class="tf">report_12<tspan x="166.3" class="ty">STRING</tspan></text><text x="13" y="511" class="tf">report_13<tspan x="166.3" class="ty">STRING</tspan></text><text x="13" y="536" class="tf">report_14<tspan x="166.3" class="ty">STRING</tspan></text><text x="13" y="561" class="tf">report_15<tspan x="166.3" class="ty">STRING</tspan></text><text x="13" y="586" class="tf">report_16<tspan x="166.3" class="ty">STRING</tspan></text><text x="13" y="611" class="tf">report_17<tspan x="166.3" class="ty">STRING</tspan></text><text x="13" y="636" class="tf">bandwidth<tspan x="166.3" class="ty">STRING</tspan></text><text x="13" y="661" class="tf">filtering<tspan x="166.3" class="ty">STRING</tspan></text><text x="13" y="686" class="tf">rr_interval<tspan x="166.3" class="ty">INT64</tspan></text><text x="13" y="711" class="tf">p_onset<tspan x="166.3" class="ty">INT64</tspan></text><text x="13" y="736" class="tf">p_end<tspan x="166.3" class="ty">INT64</tspan></text><text x="13" y="761" class="tf">qrs_onset<tspan x="166.3" class="ty">INT64</tspan></text><text x="13" y="786" class="tf">qrs_end<tspan x="166.3" class="ty">INT64</tspan></text><text x="13" y="811" class="tf">t_end<tspan x="166.3" class="ty">INT64</tspan></text><text x="13" y="836" class="tf">p_axis<tspan x="166.3" class="ty">INT64</tspan></text><text x="13" y="861" class="tf">qrs_axis<tspan x="166.3" class="ty">INT64</tspan></text><text x="13" y="886" class="tf">t_axis<tspan x="166.3" class="ty">INT64</tspan></text></svg></g></g><text class="qdbd-link" x="10" y="20">www.quickdatabasediagrams.com</text></svg>